<svg xmlns="http://www.w3.org/2000/svg" width="1440" height="800" viewBox="0 0 1440 800">
  <defs>
    <linearGradient id="grad" x1="0%" y1="0%" x2="100%" y2="100%">
      <stop offset="0%" style="stop-color:#2c3e50;stop-opacity:0.1" />
      <stop offset="100%" style="stop-color:#ff6600;stop-opacity:0.1" />
    </linearGradient>
  </defs>
  <rect width="100%" height="100%" fill="url(#grad)"/>
  
  <!-- 网络节点和连接线 -->
  <g fill="#ffffff" fill-opacity="0.15" stroke="#ffffff" stroke-width="1" stroke-opacity="0.2">
    <!-- 节点 -->
    <circle cx="200" cy="100" r="5"/>
    <circle cx="320" cy="260" r="4"/>
    <circle cx="480" cy="150" r="6"/>
    <circle cx="580" cy="300" r="3"/>
    <circle cx="720" cy="180" r="5"/>
    <circle cx="840" cy="400" r="4"/>
    <circle cx="950" cy="250" r="6"/>
    <circle cx="1100" cy="350" r="3"/>
    <circle cx="1250" cy="150" r="5"/>
    <circle cx="1300" cy="300" r="4"/>
    <circle cx="150" cy="500" r="3"/>
    <circle cx="300" cy="600" r="5"/>
    <circle cx="450" cy="450" r="4"/>
    <circle cx="600" cy="580" r="6"/>
    <circle cx="750" cy="650" r="3"/>
    <circle cx="900" cy="500" r="5"/>
    <circle cx="1050" cy="600" r="4"/>
    <circle cx="1200" cy="550" r="6"/>
    <circle cx="1350" cy="700" r="3"/>
    
    <!-- 连接线 -->
    <line x1="200" y1="100" x2="320" y2="260"/>
    <line x1="200" y1="100" x2="480" y2="150"/>
    <line x1="320" y1="260" x2="480" y2="150"/>
    <line x1="320" y1="260" x2="580" y2="300"/>
    <line x1="480" y1="150" x2="720" y2="180"/>
    <line x1="580" y1="300" x2="720" y2="180"/>
    <line x1="580" y1="300" x2="840" y2="400"/>
    <line x1="720" y1="180" x2="950" y2="250"/>
    <line x1="840" y1="400" x2="950" y2="250"/>
    <line x1="840" y1="400" x2="1100" y2="350"/>
    <line x1="950" y1="250" x2="1250" y2="150"/>
    <line x1="1100" y1="350" x2="1250" y2="150"/>
    <line x1="1100" y1="350" x2="1300" y2="300"/>
    <line x1="1250" y1="150" x2="1300" y2="300"/>
    <line x1="150" y1="500" x2="300" y2="600"/>
    <line x1="150" y1="500" x2="450" y2="450"/>
    <line x1="300" y1="600" x2="450" y2="450"/>
    <line x1="300" y1="600" x2="600" y2="580"/>
    <line x1="450" y1="450" x2="600" y2="580"/>
    <line x1="450" y1="450" x2="900" y2="500"/>
    <line x1="600" y1="580" x2="750" y2="650"/>
    <line x1="600" y1="580" x2="900" y2="500"/>
    <line x1="750" y1="650" x2="1050" y2="600"/>
    <line x1="900" y1="500" x2="1050" y2="600"/>
    <line x1="900" y1="500" x2="1200" y2="550"/>
    <line x1="1050" y1="600" x2="1200" y2="550"/>
    <line x1="1050" y1="600" x2="1350" y2="700"/>
    <line x1="1200" y1="550" x2="1350" y2="700"/>
    
    <!-- 交叉连接，创建更复杂的网络结构 -->
    <line x1="480" y1="150" x2="450" y2="450"/>
    <line x1="720" y1="180" x2="900" y2="500"/>
    <line x1="840" y1="400" x2="600" y2="580"/>
    <line x1="950" y1="250" x2="1050" y2="600"/>
    <line x1="580" y1="300" x2="450" y2="450"/>
  </g>
  
  <!-- 动画元素 -->
  <g>
    <circle cx="0" cy="0" r="3" fill="#ff6600" opacity="0.7">
      <animateMotion path="M200,100 C320,260 480,150 720,180 C950,250 1250,150 1300,300" dur="7s" repeatCount="indefinite"/>
    </circle>
    <circle cx="0" cy="0" r="2" fill="#ff6600" opacity="0.7">
      <animateMotion path="M150,500 C300,600 600,580 900,500 C1050,600 1200,550 1350,700" dur="8s" repeatCount="indefinite"/>
    </circle>
    <circle cx="0" cy="0" r="2.5" fill="#ff6600" opacity="0.7">
      <animateMotion path="M480,150 C580,300 840,400 1100,350" dur="6s" repeatCount="indefinite"/>
    </circle>
    <circle cx="0" cy="0" r="2" fill="#ff6600" opacity="0.7">
      <animateMotion path="M450,450 C600,580 750,650 1050,600" dur="9s" repeatCount="indefinite"/>
    </circle>
  </g>
</svg> 